<svg xmlns="http://www.w3.org/2000/svg" xmlns:xlink="http://www.w3.org/1999/xlink" version="1.1" id="Ebene_1" x="0px" y="0px" width="100px" height="100px" viewBox="5.0 -10.0 100.0 135.0" enable-background="new 0 0 100 100" xml:space="preserve">
<g id="Sketching">
	<g>
		<path d="M99.405,92.317L79.26,60.693V2.083C79.26,0.931,78.328,0,77.177,0h-66.72C9.305,0,8.374,0.931,8.374,2.083v2.155    C3.72,4.783,0.095,8.745,0.095,13.543c0,2.944,1.366,5.571,3.495,7.292c-2.128,1.72-3.495,4.348-3.495,7.292    s1.366,5.571,3.495,7.292c-2.128,1.72-3.495,4.348-3.495,7.292c0,2.943,1.366,5.571,3.495,7.292    c-2.128,1.72-3.495,4.347-3.495,7.292s1.366,5.571,3.495,7.292c-2.128,1.72-3.495,4.348-3.495,7.291s1.366,5.571,3.495,7.291    c-2.128,1.721-3.495,4.348-3.495,7.292c0,4.799,3.625,8.76,8.278,9.306v2.15c0,1.151,0.932,2.083,2.083,2.083h66.72    c1.151,0,2.083-0.932,2.083-2.083V83.961l9.604,15.074c0.297,0.466,0.767,0.796,1.308,0.916C90.319,99.983,90.47,100,90.62,100    c0.394,0,0.784-0.112,1.119-0.328l7.027-4.479C99.737,94.575,100.021,93.288,99.405,92.317z M8.374,76.962    c-2.347-0.505-4.112-2.591-4.112-5.087s1.765-4.582,4.112-5.087V76.962z M8.374,62.379c-2.347-0.505-4.112-2.591-4.112-5.087    s1.765-4.582,4.112-5.087V62.379z M8.374,47.796c-2.347-0.505-4.112-2.591-4.112-5.087s1.765-4.582,4.112-5.087V47.796z     M8.374,33.213c-2.347-0.505-4.112-2.591-4.112-5.087s1.765-4.582,4.112-5.087V33.213z M8.374,8.455V18.63    c-2.347-0.505-4.112-2.591-4.112-5.087S6.027,8.96,8.374,8.455z M4.262,86.458c0-2.495,1.765-4.582,4.112-5.087v10.174    C6.027,91.04,4.262,88.954,4.262,86.458z M75.094,95.831H64.677V85.414c0-1.151-0.932-2.083-2.083-2.083s-2.083,0.932-2.083,2.083    v10.417H12.54V82.272c1.29,0.948,2.138,2.465,2.138,4.186c0,1.151,0.932,2.083,2.083,2.083c1.152,0,2.083-0.932,2.083-2.083    c0-4.094-2.641-7.573-6.305-8.849v-9.92c1.29,0.948,2.138,2.464,2.138,4.186c0,1.151,0.932,2.083,2.083,2.083    c1.152,0,2.083-0.932,2.083-2.083c0-4.094-2.641-7.573-6.305-8.849v-9.92c1.29,0.948,2.138,2.464,2.138,4.186    c0,1.151,0.932,2.083,2.083,2.083c1.152,0,2.083-0.932,2.083-2.083c0-4.094-2.641-7.573-6.305-8.848v-9.92    c1.29,0.948,2.138,2.465,2.138,4.186c0,1.151,0.932,2.083,2.083,2.083c1.152,0,2.083-0.932,2.083-2.083    c0-4.093-2.641-7.573-6.305-8.848v-9.92c1.29,0.948,2.138,2.465,2.138,4.186c0,1.151,0.932,2.083,2.083,2.083    c1.152,0,2.083-0.932,2.083-2.083c0-4.093-2.641-7.573-6.305-8.848V9.357c1.29,0.949,2.138,2.465,2.138,4.186    c0,1.151,0.932,2.083,2.083,2.083c1.152,0,2.083-0.932,2.083-2.083c0-4.093-2.641-7.573-6.305-8.848V4.166h62.554v49.987    l-4.789-7.518c-0.125-0.197-0.287-0.363-0.467-0.505c-0.11-0.454-0.364-0.867-0.744-1.159l-9.364-7.222    c-0.164-0.131-0.348-0.228-0.54-0.303c-0.032-0.013-0.062-0.026-0.096-0.038c-0.176-0.06-0.358-0.097-0.546-0.108    c-0.028-0.002-0.058,0.001-0.086,0c-0.168-0.002-0.335,0.015-0.502,0.054c-0.031,0.007-0.062,0.011-0.093,0.019    c-0.153,0.043-0.305,0.099-0.451,0.18l-13.896,7.705l16.545-21.055c0.586-0.747,0.594-1.792,0.02-2.549    c-0.573-0.753-1.585-1.025-2.459-0.661l-17.948,7.479l7.916-10.557c0.523-0.696,0.558-1.646,0.083-2.378    c-0.472-0.73-1.351-1.086-2.202-0.905l-14.017,3.115l3.755-6.258c0.592-0.987,0.273-2.267-0.714-2.858    c-0.989-0.592-2.267-0.271-2.858,0.714l-6.25,10.417c-0.429,0.714-0.391,1.615,0.096,2.291c0.488,0.675,1.333,0.991,2.142,0.815    l13.252-2.946l-9.12,12.162c-0.564,0.75-0.556,1.786,0.022,2.529c0.578,0.743,1.581,0.999,2.446,0.643l17.622-7.343L33.873,50.794    c-0.612,0.781-0.592,1.884,0.051,2.639c0.409,0.479,0.993,0.732,1.587,0.732c0.346,0,0.691-0.085,1.011-0.261L57.003,42.55    l1.981,8.86c0.076,0.341,0.237,0.649,0.46,0.906c0.015,0.364,0.116,0.723,0.315,1.035l15.334,24.069V95.831z M61.717,44.544    l2.484,1.915l-1.799,1.146L61.717,44.544z M91.258,95.039l-26.863-42.17l3.516-2.238L94.771,92.8L91.258,95.039z"/>
	</g>
</g>
<text x="0.0" y="117.5" font-size="5.0" font-weight="bold" font-family="Helvetica Neue, Helvetica, Arial-Unicode, Arial, Sans-serif" fill="#000000">Created by Konrad Michalik</text><text x="0.0" y="122.5" font-size="5.0" font-weight="bold" font-family="Helvetica Neue, Helvetica, Arial-Unicode, Arial, Sans-serif" fill="#000000">from the Noun Project</text></svg>